<?xml version="1.0" encoding="UTF-8"?>
<svg id="Layer_2" data-name="Layer 2" xmlns="http://www.w3.org/2000/svg" viewBox="0 0 2739.05 698.04">
  <defs>
    <style>
      .cls-1 {
        fill: #262626;
        stroke-width: 0px;
      }
    </style>
  </defs>
  <g id="Layer_1-2" data-name="Layer 1">
    <g>
      <path class="cls-1" d="M0,689.5v-11.09c25.6-7.68,34.13-27.31,34.13-97.29V200.53c0-69.97-8.53-89.6-34.13-97.28v-11.09h203.95c234.67,0,326.83,149.34,327.69,287.58.85,180.05-120.32,309.76-308.06,309.76H0ZM453.98,413.87c0-170.67-101.55-308.91-291.85-308.91h-58.03v509.44c0,40.11,8.53,62.3,55.47,62.3h62.29c149.34,0,232.11-84.48,232.11-262.83Z"/>
      <path class="cls-1" d="M571.7,488.97c0-139.1,104.96-232.11,224.43-232.11,107.52,0,169.82,69.97,172.38,151.04h-333.66c-1.7,12.8-2.56,25.6-2.56,39.26,0,116.9,72.53,197.12,183.47,197.12,65.71,0,112.64-29.87,151.89-74.24l7.68,7.68c-43.52,59.73-110.08,120.32-201.39,120.32s-202.25-68.26-202.25-209.07ZM900.24,396.81c-8.53-57.18-54.61-124.59-132.27-124.59-72.53-.85-116.91,52.91-130.56,124.59h262.83Z"/>
      <path class="cls-1" d="M985.54,514.57l122.03-229.56C1191.19,127.14,1354.18.85,1531.68.85c46.08,0,74.24,5.12,74.24,18.77,0,17.92-29.01,55.47-69.97,55.47-31.57,0-75.1-12.81-151.04-33.28-75.95,29.01-122.03,73.39-181.76,187.73l-146.78,281.6c47.79-57.17,98.99-110.94,147.63-155.31,62.29-58.88,119.47-99.84,157.87-98.99,33.28,0,51.2,33.28,51.2,67.41,0,162.13-186.03,371.21-342.19,371.21-95.57,0-135.68-84.48-85.33-180.91ZM1343.94,354.13c0-38.4-11.95-52.91-30.72-52.91-20.48,0-58.88,23.9-102.4,63.15-54.61,49.5-119.47,120.32-174.08,187.74-13.66,80.21,42.66,111.79,87.89,111.79,128.86,0,219.31-197.97,219.31-309.77Z"/>
      <path class="cls-1" d="M1386.57,592.22c0-139.1,176.65-336.22,308.06-336.22,68.27,0,89.6,53.76,89.6,98.13,0,163.84-188.59,342.19-300.38,342.19-55.47,0-97.28-37.55-97.28-104.1ZM1715.11,382.3c0-60.59-29.01-90.45-77.65-90.45-107.52,0-180.05,169.82-180.05,269.65,0,57.17,21.33,99.85,80.21,99.85,107.52,0,177.5-187.74,177.5-279.05Z"/>
      <path class="cls-1" d="M1774.82,592.22c0-138.24,170.67-336.22,320.01-336.22,23.89,0,49.49,1.7,76.8,8.53,15.36-56.32,23.89-110.09,23.89-153.6,0-49.5-18.77-72.54-50.35-72.54-34.99,0-79.36,30.72-118.62,69.12l-6.83-7.68c60.59-60.59,124.59-99.84,172.38-99.84,54.61,0,75.95,39.25,75.95,91.3,1.7,183.48-243.21,603.32-405.34,603.32-53.76,0-87.9-44.37-87.9-102.4ZM1907.95,655.37c93.01,0,192-167.26,246.62-331.1-42.67-20.48-86.19-31.57-123.74-31.57-117.76,0-185.18,169.82-182.62,279.9,0,47.79,18.77,82.78,59.73,82.78Z"/>
      <path class="cls-1" d="M2167.33,645.13c0-81.92,162.13-273.07,162.13-321.71,0-12.8-5.97-21.33-21.33-21.33-17.07,0-45.23,14.5-83.63,49.49l-6.83-8.53c62.29-56.32,113.5-87.04,143.36-87.04,31.57,0,42.66,24.74,42.66,44.37,0,75.95-155.31,253.44-155.31,314.03,0,17.92,9.39,26.46,25.6,26.46,17.07,0,38.4-7.68,73.39-40.11l6.82,8.53c-62.29,56.32-111.79,87.04-139.95,87.04-34.14,0-46.94-29.02-46.94-51.2ZM2570.11,35.84c4.27,0,5.97,5.12,5.97,11.09,0,14.51-3.41,18.77-17.92,29.87l-162.13,126.29-5.12-6.82,154.46-141.65c11.95-11.1,19.63-18.77,24.75-18.77Z"/>
      <path class="cls-1" d="M2427.58,657.93l-7.68-103.25,7.68-1.71c35.84,81.07,96.43,129.71,174.08,130.56,52.91,0,92.16-31.57,92.16-79.36,0-61.44-59.73-81.06-125.44-102.4-81.07-25.61-139.1-47.79-139.1-125.44,0-67.41,56.32-119.47,155.31-119.47,55.47,0,105.82,11.95,132.27,23.04l3.41,87.04-8.53,1.71c-27.31-61.44-81.92-100.7-142.51-100.7s-95.57,28.17-95.57,71.68c0,53.76,54.61,75.96,122.03,98.14,64.86,21.33,143.36,40.96,143.36,126.29,0,71.68-53.76,132.27-156.16,133.13-68.27,0-127.15-20.48-155.31-39.26Z"/>
    </g>
  </g>
</svg>